/* XPM */
static char *collectible[] = {
/* columns rows colors chars-per-pixel */
"64 64 10 1 ",
"  c #754C60",
". c #90625D",
"X c #C49A6C",
"o c #A4C263",
"O c #D4C169",
"+ c #C0D470",
"@ c #C58086",
"# c #E8CFA6",
"$ c #E8EEAA",
"% c #F3F2C0",
/* pixels */
"++++++++++++++++++++++++++++++++++++++++++++++++++++++++++++++++",
"++++++++++++++++++++++++++++++++++++++++++++++++++++++++++++++++",
"++++++++++++++++++++++++++++++++++++++++++++++++++++++++++++++++",
"++++++++++++++++++++++++++++++++++++++++++++++++++++++++++++++++",
"++++++++++++++++++++++++++++++++++++++++++++++++++++++++++++++++",
"++++++++++++++++++++++++++++++++++++++++++++++++++++++++++++++++",
"++++++++++++++++++++++++++++++++++++++++++++++++++++++++++++++++",
"++++++++++++++++++++++++++++++++++++++++++++++++++++++++++++++++",
"++++++++++++++++++++++++++++++++++++++++++++++++++++++++++++++++",
"++++++++++++++++++++++++++++++++++++++++++++++++++++++++++++++++",
"++++++++++++++++++++++++++++++++++++++++++++++++++++++++++++++++",
"++++++++++++++++++++++++++++++++++++++++++++++++++++++++++++++++",
"++++++++++++oooo++++oooo++++............++++++++++++++++++++++++",
"++++++++++++oooo++++oooo++++............++++++++++++++++++++++++",
"++++++++++++oooo++++oooo++++............++++++++++++++++++++++++",
"++++++++++++oooo++++oooo++++............++++++++++++++++++++++++",
"++++++++++++++++oooo++++....@@@@@@@@@@@@....++++++++++++++++++++",
"++++++++++++++++oooo++++....@@@@@@@@@@@@....++++++++++++++++++++",
"++++++++++++++++oooo++++....@@@@@@@@@@@@....++++++++++++++++++++",
"++++++++++++++++oooo++++....@@@@@@@@@@@@....++++++++++++++++++++",
"++++++++++++++++++++....%%%%%%%%%%%%%%%%%%%%....++++++++++++++++",
"++++++++++++++++++++....%%%%%%%%%%%%%%%%%%%%....++++++++++++++++",
"++++++++++++++++++++....%%%%%%%%%%%%%%%%%%%%....++++++++++++++++",
"++++++++++++++++++++....%%%%%%%%%%%%%%%%%%%%....++++++++++++++++",
"++++++++++++++++....%%%%        %%%%%%%%        ....++++++++++++",
"++++++++++++++++....%%%%        %%%%%%%%        ....++++++++++++",
"++++++++++++++++....%%%%        %%%%%%%%        ....++++++++++++",
"++++++++++++++++....%%%%        %%%%%%%%        ....++++++++++++",
"++++++++++++++++....%%%%%%%%%%%%%%%%OOOOOOOO%%%%....++++++++++++",
"++++++++++++++++....%%%%%%%%%%%%%%%%OOOOOOOO%%%%....++++++++++++",
"++++++++++++++++....%%%%%%%%%%%%%%%%OOOOOOOO%%%%....++++++++++++",
"++++++++++++++++....%%%%%%%%%%%%%%%%OOOOOOOO%%%%....++++++++++++",
"++++++++++++....%%%%%%%%%%%%%%%%%%%%%%%%%%%%%%%%....++++++++++++",
"++++++++++++....%%%%%%%%%%%%%%%%%%%%%%%%%%%%%%%%....++++++++++++",
"++++++++++++....%%%%%%%%%%%%%%%%%%%%%%%%%%%%%%%%....++++++++++++",
"++++++++++++....%%%%%%%%%%%%%%%%%%%%%%%%%%%%%%%%....++++++++++++",
"++++++++....%%%%%%%%%%%%%%%%%%%%%%%%%%%%%%%%%%%%....++++++++++++",
"++++++++....%%%%%%%%%%%%%%%%%%%%%%%%%%%%%%%%%%%%....++++++++++++",
"++++++++....%%%%%%%%%%%%%%%%%%%%%%%%%%%%%%%%%%%%....++++++++++++",
"++++++++....%%%%%%%%%%%%%%%%%%%%%%%%%%%%%%%%%%%%....++++++++++++",
"++++++++....####%%%%%%%%%%%%XXXX%%%%%%%%%%%%####....++++++++++++",
"++++++++....####%%%%%%%%%%%%XXXX%%%%%%%%%%%%####....++++++++++++",
"++++++++....####%%%%%%%%%%%%XXXX%%%%%%%%%%%%####....++++++++++++",
"++++++++....####%%%%%%%%%%%%XXXX%%%%%%%%%%%%####....++++++++++++",
"++++++++++++....XXXXXXXXXXXX################....++++++++++++++++",
"++++++++++++....XXXXXXXXXXXX################....++++++++++++++++",
"++++++++++++....XXXXXXXXXXXX################....++++++++++++++++",
"++++++++++++....XXXXXXXXXXXX################....++++++++++++++++",
"++++++++++++++++....OOOOOOOO....OOOOOOOO....$$$$++++$$$$++++++++",
"++++++++++++++++....OOOOOOOO....OOOOOOOO....$$$$++++$$$$++++++++",
"++++++++++++++++....OOOOOOOO....OOOOOOOO....$$$$++++$$$$++++++++",
"++++++++++++++++....OOOOOOOO....OOOOOOOO....$$$$++++$$$$++++++++",
"++++++++++++++++++++........++++........++++++++$$$$++++++++++++",
"++++++++++++++++++++........++++........++++++++$$$$++++++++++++",
"++++++++++++++++++++........++++........++++++++$$$$++++++++++++",
"++++++++++++++++++++........++++........++++++++$$$$++++++++++++",
"++++++++++++++++++++++++++++++++++++++++++++++++++++++++++++++++",
"++++++++++++++++++++++++++++++++++++++++++++++++++++++++++++++++",
"++++++++++++++++++++++++++++++++++++++++++++++++++++++++++++++++",
"++++++++++++++++++++++++++++++++++++++++++++++++++++++++++++++++",
"++++++++++++++++++++++++++++++++++++++++++++++++++++++++++++++++",
"++++++++++++++++++++++++++++++++++++++++++++++++++++++++++++++++",
"++++++++++++++++++++++++++++++++++++++++++++++++++++++++++++++++",
"++++++++++++++++++++++++++++++++++++++++++++++++++++++++++++++++"
};
