/* XPM */
static char * enemy_xpm[] = {
"64 64 169 2",
"  	c #C0D470",
". 	c #49512B",
"+ 	c #485029",
"@ 	c #4B522D",
"# 	c #5A5F44",
"$ 	c #464E26",
"% 	c #525839",
"& 	c #4B532F",
"* 	c #585934",
"= 	c #5C5526",
"- 	c #5B5426",
"; 	c #585428",
"> 	c #4D5532",
", 	c #5C592E",
"' 	c #4A4F26",
") 	c #7E5F25",
"! 	c #645725",
"~ 	c #4F5126",
"{ 	c #585B38",
"] 	c #795C25",
"^ 	c #7E5D26",
"/ 	c #7C5E25",
"( 	c #735B26",
"_ 	c #745925",
": 	c #625626",
"< 	c #5A5326",
"[ 	c #705B26",
"} 	c #565326",
"| 	c #494F26",
"1 	c #555733",
"2 	c #775A25",
"3 	c #6D5825",
"4 	c #685826",
"5 	c #685625",
"6 	c #474F26",
"7 	c #5F5425",
"8 	c #6B5725",
"9 	c #6D5B28",
"0 	c #AC7026",
"a 	c #D2D5CC",
"b 	c #B07B2F",
"c 	c #AD7126",
"d 	c #52562E",
"e 	c #CA7D25",
"f 	c #C67D26",
"g 	c #F7F6EA",
"h 	c #F9FBF3",
"i 	c #CE8A30",
"j 	c #C57A25",
"k 	c #CA8630",
"l 	c #9A6726",
"m 	c #615425",
"n 	c #8C6226",
"o 	c #BE7425",
"p 	c #C38230",
"q 	c #BD7627",
"r 	c #A96C25",
"s 	c #B27026",
"t 	c #B57125",
"u 	c #B87E30",
"v 	c #9E6926",
"w 	c #545126",
"x 	c #3B4720",
"y 	c #625121",
"z 	c #715420",
"A 	c #6F5320",
"B 	c #514C21",
"C 	c #F3F2EC",
"D 	c #515126",
"E 	c #655020",
"F 	c #614F20",
"G 	c #5B4F20",
"H 	c #4B4A20",
"I 	c #BCBEB4",
"J 	c #878B7C",
"K 	c #747865",
"L 	c #4E5026",
"M 	c #594D20",
"N 	c #484A21",
"O 	c #AEB0A6",
"P 	c #939587",
"Q 	c #665120",
"R 	c #4B5026",
"S 	c #C4C6BD",
"T 	c #7F8373",
"U 	c #F0EFE8",
"V 	c #686C56",
"W 	c #D8DAD2",
"X 	c #5C6248",
"Y 	c #C07425",
"Z 	c #585E40",
"` 	c #926526",
" .	c #655E32",
"..	c #B57626",
"+.	c #D3A261",
"@.	c #F1EADC",
"#.	c #B1AA97",
"$.	c #99937C",
"%.	c #D8B57D",
"&.	c #D4A769",
"*.	c #DBBC8A",
"=.	c #B39A71",
"-.	c #DBB98A",
";.	c #E5D3B5",
">.	c #989C8F",
",.	c #8D9081",
"'.	c #CBCEC5",
").	c #E9DDC1",
"!.	c #CFAF82",
"~.	c #E1E3DB",
"{.	c #E8EAE3",
"].	c #B3B6AB",
"^.	c #555B3E",
"/.	c #7A7E6D",
"(.	c #DF5F47",
"_.	c #E25B3E",
":.	c #D35B3F",
"<.	c #F1E1DB",
"[.	c #EFEBE3",
"}.	c #DF502A",
"|.	c #E24E25",
"1.	c #D74E26",
"2.	c #CC4E25",
"3.	c #D24E25",
"4.	c #EDD6CF",
"5.	c #A7A89C",
"6.	c #DEDBD3",
"7.	c #DDC5BE",
"8.	c #615F3E",
"9.	c #DB4E28",
"0.	c #4E4E27",
"a.	c #856226",
"b.	c #986525",
"c.	c #9C6B26",
"d.	c #614F28",
"e.	c #5C4E28",
"f.	c #946627",
"g.	c #7D806F",
"h.	c #787860",
"i.	c #B97A29",
"j.	c #BE7A2C",
"k.	c #6D715C",
"l.	c #C1782A",
"m.	c #6F6232",
"n.	c #C37B3D",
"o.	c #E8EEAA",
"p.	c #52542B",
"q.	c #C57A3D",
"r.	c #A5703D",
"s.	c #745C29",
"t.	c #896126",
"u.	c #5F5B3D",
"v.	c #F2EDDC",
"w.	c #C99D5F",
"x.	c #56593D",
"y.	c #595B41",
"z.	c #D3A566",
"A.	c #585A3F",
"B.	c #9C8863",
"C.	c #857854",
"D.	c #CBA672",
"E.	c #C78A3D",
"F.	c #A07635",
"G.	c #83652E",
"H.	c #62674F",
"I.	c #A3A79A",
"J.	c #A8A79A",
"K.	c #535329",
"L.	c #929485",
"                                      . . + + . + + . + + . @                       # . + . + . + + . + + .                     ",
"                                      $ $ $ $ $ $ $ $ $ $ $ $                       % $ $ $ $ $ $ $ $ $ $ $                     ",
"                                  & * = = = - = - = = = = = ; & >               % & , = = - = = = = = - = = * &                 ",
"                                % $ ' ) ) ) ) ) ) ) ) ) ) ) ! $ $               . $ - ) ) ) ) ) ) ) ) ) ) ) ~ $ >               ",
"                                { ' ~ ) ) ] ^ ] ) / ( _ ] / : $ $               . $ < / / ( [ ] ) ) ] ^ ) ] } | 1               ",
"                            . $ - ) / ( 2 2 2 2 ( 3 $ $ : _ = $ $ $ $ $ $ $ $ $ $ $ } 2 4 $ $ 5 _ 2 _ _ 2 2 / ) ! $ 6           ",
"                            @ $ < ) ] _ 2 _ _ _ 2 3 $ $ : 2 7 $ $ $ $ $ $ $ $ $ $ $ } 2 8 $ $ 5 _ _ _ _ 2 _ ] / ! $ 6           ",
"                        & & 9 [ _ 2 ] _ _ _ _ 2 2 3 6 $ 6 ' : 0 0 a a a a a a a b c [ ' | $ $ 5 _ _ _ _ _ _ 2 2 ( [ 9 d &       ",
"                        $ $ ] ) ] _ _ _ _ 2 _ _ 2 3 $ $ $ $ : e f g h h h h h h i e ] $ $ $ $ 5 _ _ _ _ _ _ 2 _ ] ) ) 6 $       ",
"                        $ $ [ ] 2 _ _ _ _ _ _ _ 8 5 $ $ : ( ) j j g h h h h h h k j l 3 ! $ $ : 8 3 _ _ _ _ _ _ 2 ] ] $ $       ",
"                        $ $ 4 2 _ _ _ _ _ _ _ 8 m 7 $ $ n o o o o g h h h h h h p o q o r $ $ < m 5 _ _ _ _ _ _ 2 _ _ 6 $       ",
"                        $ $ 4 2 _ 2 2 _ _ _ _ 5 7 < $ $ n s t t 0 g h h h h h h u t t c v $ $ w 7 5 _ _ _ _ _ _ 2 _ 3 $ $       ",
"                        x x y z _ _ _ _ A A z B $ $ $ $ $ $ $ $ 6 C h h h h h h > $ $ $ $ $ $ $ $ D 2 _ _ _ 2 _ _ _ _ 6 $       ",
"                        x x E z _ _ 2 _ A z A B $ $ $ $ $ $ $ $ $ h h h h h h h > $ $ $ $ $ $ $ $ D 2 2 _ _ _ _ _ _ _ $ $       ",
"                        x x y A _ _ _ _ A F G H $ . I I I I J $ $ C h h h h h h > $ K I I I I % $ L m 5 _ _ _ _ _ _ _ $ $       ",
"                        x x E A _ _ _ 2 z M M N $ @ h h h h O $ + C h h h h h h > $ P h h h h # $ L m m _ _ _ _ _ _ _ $ $       ",
"                        $ $ 5 8 Q Q Q Q 3 < w R $ @ h h S O T $ $ h h h h h h h > $ P h U O O > $ ' w w 4 3 3 3 3 3 8 $ $       ",
"                        $ $ < m M M M M m | $ $ $ & h h V $ $ $ 6 C h h h h h h > $ P h W 6 $ $ $ $ $ 6 m 7 m m m m m $ $       ",
"                        + + < m M M M M m ' 6 6 $ . h C V $ $ $ $ h h h h h h h > $ P h W $ $ $ $ 6 6 | m m m m 7 m m + +       ",
"                            @ $ x x x x $ l o ^ $ $ + + 6 $ $ $ $ h h h h h h h > $ 6 + + $ $ $ $ ! o s 6 $ $ $ $ $ 6           ",
"                            . $ $ $ $ $ $ v o ^ $ $ $ $ $ $ $ $ $ h h h h h h h > $ $ $ $ $ $ $ $ 4 o t $ $ $ $ $ $ 6           ",
"                                    X $ $ v Y ) $ $ $ $ $ $ $ $ 6 h h h h h h h > $ $ $ $ $ $ $ $ 4 o t $ $ Z                   ",
"                                      $ $ v Y ) $ $ $ $ $ $ $ $ $ C h h h h h h > $ $ $ $ $ $ $ $ 4 o t 6 $                     ",
"                                      $ $ v o ` } } } } } } } } ; C h h h h h h  .} } } } } } } } ) o t $ $                     ",
"                                      $ $ v o o o o o o o o o o ..g h h h h h h p o o o o o o o o o o t $ $                     ",
"                                      $ $ v o o o o o o o o o o q g h h h h h h p o o o o o o o o o o t $ $                     ",
"                                      $ $ v o +.@.@.@.@.@.@.#.R R > > > & > > > R R $.@.@.@.@.@.@.%.Y t 6 $                     ",
"                                      $ $ v o &.h h h h h h O $ $ $ $ $ $ $ $ $ $ $ P h h h h h h *.Y t $ $                     ",
"                                      $ $ =.-.;.h h h h h h W >.>.+ $ $ $ $ $ $ ,.>.'.h h h h h h ).-.!.6 $                     ",
"                                      $ $ '.h h h h h h h h h h h + $ $ $ $ $ $ ~.h h h h h h h h h h {.$ $                     ",
"                                      + + ].a ~.h h h h h h h h h # ^.^.^.^.^.^.~.h h h h h h h h {.a '.+ +                     ",
"                                          6 $ T h h h h h h h h h h h h h h h h h h h h h h h h h >.$ +                         ",
"                                          + $ T h h h h h h h h h g h h h h h g h h h h h h h h h >.$ +                         ",
"                                          6 $ /.U U h h h h h h h (._.:.:.:._._.<.h h h h h h U U P $ +                         ",
"                                          6 $ /.[.[.h h h h h h C }.|.1.2.3.|.|.<.h h h h h h U [.P $ +                         ",
"                                            > /.P >.C C C C C C C }.|.1.2.2.|.|.4.C C C C C C 5.P T > ^.                        ",
"                                                $ @ [.[.[.[.[.[.[.}.|.1.2.3.|.|.4.[.[.[.[.U [.^.$ .                             ",
"                                              % $ . 6.6.6.W 6.6.6.}.|.1.3.3.|.|.7.6.W 6.6.6.W 8.R d                             ",
"              & 6 6 6 @               6 $ 6 $ $ $ $ 6 $ $ 6 $ 6 6 9.|.|.|.|.|.|.0.6 6 $ 6 $ 6 0 e a.6 @                         ",
"              . $ $ $ .               $ $ $ $ $ $ $ $ $ $ $ $ $ 6 9.|.|.|.|.|.|.R $ $ $ $ $ $ c e ) $ +                         ",
"          . > I I V $ .           @ d 4 4 ' $ ; ` b.c.v c.c.v c.v d.e.e.e.e.w d.f.v c.c.c.c.c.j e ) $ +                         ",
"          $ $ C h g.$ .         % $ ' ) / R $ 4 Y Y e e e e e e e | $ $ $ $ $ $ t e e e e e e e e a.$ +                         ",
"          $ + U h /.$ .         % $ ' ] ] R $ 8 Y o j f j f j j j h.K K K K K K i.j j j j j j j f ) $ +                         ",
"          $ 6 C h g.$ .         % $ ' _ ( R $ 4 o Y o o Y Y o Y o g h h h h h h p Y Y Y q Y Y o o / $ +                         ",
"          + . U C g.$ @         Z 6 ' 2 _ ' $ 4 Y q Y o q Y Y o t g h h h h h h p Y o Y o o o q o / $ +                         ",
"    > + K C C j.o 4 $ .     > + = ) ] 2 ( ' $ 8 Y Y Y o Y o o Y o g h h h h h h p q o o q Y Y o o ^ $ +                         ",
"    . $ k.h h j.o 4 $ .     @ $ - ) ) 2 ( R $ 4 o q Y o o Y Y Y o C h h h h h h p Y Y o Y q Y Y o ^ $ +                         ",
"    . $ k.h g l.o 4 $ .     . $ } ] ^ v v ~ $ 4 Y o o Y q Y v ! = h h h h h h h m.: ` o o Y Y q o / $ +                         ",
"    . $ k.h g l.q 4 $ .     . $ w 2 ^ Y o D $ 4 Y o o o Y Y n $ $ h h h h h h h > $ ] o n.n.n.n.o ^ $ + o.o.o.o.                ",
"    . $ k.h g l.o ! $ .     p.~ m _ ^ Y o 4 } _ ` b.o o Y Y ) $ 6 C h h h h h h > $ ] o q.q.n.r.` s.+ & o.o.o.o.                ",
"    . $ k.h g i.o ! $ $ $ $ ] ) ] _ ^ o Y Y o ) $ ' o o Y Y t.$ $ h h h h h h h > $ ] o n.n.n.u.$ .     o.o.o.o.                ",
"    @ 6 k.h h j.o 4 $ $ $ $ ( ) ] _ ^ o o o o ) $ | o o Y Y t.$ $ h h h h h h h > $ ] Y n.q.q.u.$ .     o.o.o.o.                ",
"          > > {.v.w.c ` $ $ 8 ( b.t o o Y Y Y ) $ | o o o Y n $ $ h h h h h h h > $ ] o o Y o D x.y.o.o.                        ",
"          $ 6 C h z.Y b.$ $ 8 2 b.Y o o Y Y Y ) $ ' q Y Y Y ) $ 6 h h h h h h h > $ ( o o o o D x.A.o.o.                        ",
"          $ + U h z.o b.$ $ 8 ( b.Y Y o Y o Y ) $ . -.-.-.-.B.$ $ h h h h h h h > $ C.-.-.-.-.1 x.A.o.o.                        ",
"          $ $ C h z.o v $ $ 4 2 b.Y q Y q Y Y ) $ . h h h h O $ $ C h h h h h h > $ P h h h h # x.y.o.o.                        ",
"          & > '.a D.E.F.$ $ 4 2 b.Y o o o r v G.Z H.h h h h O $ 6 h h h h h h h > $ P h h h h K Z X                             ",
"              & $ I.h S $ $ 8 2 b.Y o Y Y D $ T h h h h h h O $ 6 C h h h h h h > $ P h h h h h h >.$ .                         ",
"              . $ 5.h S $ $ 4 2 v o Y o o D $ T h h h h h h O $ 6 C h h h h h h > $ P h h h h h h >.$ +                         ",
"                  X ^.> $ $ m m n Y q Y Y D $ /.[.U [.U U U 5.$ 6 C h h h h h h > $ ,.U U U [.U U P $ +                         ",
"                  . $ $ $ $ < m t.o Y Y o D $ /.[.[.[.[.[.[.J.$ $ h h h h h h h > $ ,.[.[.[.[.[.U P $ +                         ",
"                    & & & > K.D : ] ] ] ] R $ # P L.L.L.P P k.$ $ P >.>.>.>.P >.. $ H.L.L.L.L.P L.V $ +                         ",
"                            . $ $ $ $ $ $ $ $ $ $ $ $ $ $ $ $ $ $ $ $ $ $ $ $ $ $ $ $ $ $ $ $ $ $ $ $ +                         ",
"                            ^.. & & & > > + . & & @ . @ . + & . + + . + & & @ . . . . . & + & + . & + >                         "};
