/* XPM */
static char * exit_xpm[] = {
"64 64 53 1",
" 	c #C0D470",
".	c #90625D",
"+	c #A4C263",
"@	c #9E755F",
"#	c #D4C169",
"$	c #B49568",
"%	c #EAE178",
"&	c #CCA86E",
"*	c #C49A6C",
"=	c #D2AD7E",
"-	c #DCB98A",
";	c #C69D6C",
">	c #C79E70",
",	c #C9A072",
"'	c #D0AA7C",
")	c #CEA678",
"!	c #C89F71",
"~	c #ECE580",
"{	c #ECE47E",
"]	c #B5966B",
"^	c #B89C78",
"/	c #F4F4A0",
"(	c #F2F098",
"_	c #9D7753",
":	c #B09643",
"<	c #BEA956",
"[	c #A37E59",
"}	c #BCA551",
"|	c #BFA954",
"1	c #A47F6A",
"2	c #B2946F",
"3	c #DACB74",
"4	c #AF8E6C",
"5	c #AB8862",
"6	c #BCA652",
"7	c #A27D58",
"8	c #BEA753",
"9	c #B9A14D",
"0	c #A27B62",
"a	c #D1BD66",
"b	c #A0705B",
"c	c #C3AE58",
"d	c #AC835F",
"e	c #DDCE6F",
"f	c #AA7959",
"g	c #B2875C",
"h	c #A6825D",
"i	c #C7B35C",
"j	c #C6B15B",
"k	c #AF825B",
"l	c #C3A463",
"m	c #D0BC65",
"n	c #E8EEAA",
"                                                                ",
"                                                                ",
"                                                                ",
"                                                                ",
"                                                                ",
"                                                                ",
"                                                                ",
"                                                                ",
"                                                                ",
"                                                                ",
"             ......                          ......             ",
"             ......                          ......             ",
"            +@@@@@@ ++++                     @@@@@@             ",
"          ..@######@........................@######@..          ",
"          ..@######@........................@######@..          ",
"          ..@######@........................@######@..          ",
"      ...$%%%%%%%%%&**=------------------=**&%%%%%%%%%$...      ",
"      ...$%%%%%%%%%&**=------------------=**&%%%%%%%%%$...      ",
"      ...$%%%%%%%%%&**=------------------=**&%%%%%%%%%$...      ",
"      ...$%%%%%%&&&;**>,,'------------',,>**;&&&%%%%%%$...      ",
"      ...$%%%%%%*********)------------)*********%%%%%%$...      ",
"      ...$%%%%%%*********)------------)*********%%%%%%$...      ",
"      ...$%%%%%%*********!))))))))))))!*********%%%%%%$...      ",
"      ...$%%%%%%********************************%%%%%%$...      ",
"      ...$%%%%%%********************************%%%%%%$...      ",
"      ...$%%%%%%********************************%%%%%%$...      ",
"      ...$%%%%%%********************************%%%%%%$...      ",
"      ...$%%%%%%********************************%%%%%%$...      ",
"      ...$~~~%%%&&&&&&&&&&&&&&&&&&&&&&&&&&&&&&&&%%%{~~]...      ",
"      ...^//(%%%%%%%%%%%%%%%%%%%%%%%%%%%%%%%%%%%%%%(//^...      ",
"      ...^//(%%%%%%%%%%%%%%%%%%%%%%%%%%%%%%%%%%%%%%(//^...      ",
"      ...^//(%%%%%%%%%%%%%%%%%%%%%%%%%%%%%%%%%%%%%%(//^...      ",
"      ..._::<//////////////////////////////////////<::_...      ",
"      ..._::<//////////////////////////////////////<::_...      ",
"      ..._::<//////////////////////////////////////<::_...      ",
"      ...[}}<<||1111111111112~~~3334111511151111<<<6}}7...      ",
"      ...[8|9:::............0%%%##ab............:::}<8[...      ",
"      ...[||8:::............0%%%##a0............:::}}c[...      ",
"      ...[||8999bbbbbbbbbbbbdeee##a5bbbbbbbbbbbb999<887...      ",
"      ...[||||||ffffffffffffg#####a5ffffffffffff<<<<c87...      ",
"      ...[||||||ffffffffffffg######gffffffffffff||||8c[...      ",
"      ...hiij|||ffffffffffffklll,llkffffffffffff|||cjih...      ",
"      ...5##a|||ffffffffffffffffffffffffffffffff||8m##5...      ",
"      ...5##a8||ffffffffffffffffffffffffffffffff||cm##5...      ",
"      ...5##acccffffffffffffffffffffffffffffffffccca##5...      ",
"      ...5######ffffffffffffffffffffffffffffffff######5...      ",
"      ...5######ffffffffffffffffffffffffffffffff######5...      ",
"      ...5######ffffffffffffffffffffffffffffffff######5...      ",
"          ..@######################################@..nn        ",
"          ..@######################################@..nn        ",
"          ..@######################################@..nn        ",
"             @@@@@@@@@@@@@@@@@@@@@@@@@@@@@@@@@@@@@@ nnnn        ",
"             ......................................n            ",
"             ......................................n            ",
"                                                nnnn            ",
"                                                nnnn            ",
"                                                                ",
"                                                                ",
"                                                                ",
"                                                                ",
"                                                                ",
"                                                                ",
"                                                                ",
"                                                                "};
