/* XPM */
static char *player[] = {
/* columns rows colors chars-per-pixel */
"64 64 8 1 ",
"  c #C0D470",
". c #EAE178",
"X c #5C4E92",
"o c #766DAA",
"O c #E8B5AC",
"+ c #DDD5DE",
"@ c #F3D8C5",
"# c #F3F2C0",
/* pixels */
"            XXXXXXXXXXXX                XXXXXXXXXXXX            ",
"            XXXXXXXXXXXX                XXXXXXXXXXXX            ",
"            XXXXXXXXXXXX                XXXXXXXXXXXX            ",
"            XXXXXXXXXXXX                XXXXXXXXXXXX            ",
"        XXXX############XXXX        XXXX############XXXX        ",
"        XXXX############XXXX        XXXX############XXXX        ",
"        XXXX############XXXX        XXXX############XXXX        ",
"        XXXX############XXXX        XXXX############XXXX        ",
"        XXXXOOOOOOOO####XXXXXXXXXXXXXXXX####OOOOOOOOXXXX        ",
"        XXXXOOOOOOOO####XXXXXXXXXXXXXXXX####OOOOOOOOXXXX        ",
"        XXXXOOOOOOOO####XXXXXXXXXXXXXXXX####OOOOOOOOXXXX        ",
"        XXXXOOOOOOOO####XXXXXXXXXXXXXXXX####OOOOOOOOXXXX        ",
"        XXXXOOOOOOOO####++++++++++++++++####OOOOOOOOXXXX        ",
"        XXXXOOOOOOOO####++++++++++++++++####OOOOOOOOXXXX        ",
"        XXXXOOOOOOOO####++++++++++++++++####OOOOOOOOXXXX        ",
"        XXXXOOOOOOOO####++++++++++++++++####OOOOOOOOXXXX        ",
"        XXXX############++++++++++++++++############XXXX        ",
"        XXXX############++++++++++++++++############XXXX        ",
"        XXXX############++++++++++++++++############XXXX        ",
"        XXXX############++++++++++++++++############XXXX        ",
"        XXXX############++++++++++++++++############XXXX        ",
"        XXXX############++++++++++++++++############XXXX        ",
"        XXXX############++++++++++++++++############XXXX        ",
"        XXXX############++++++++++++++++############XXXX        ",
"    XXXXXXXX########################################XXXXXXXX    ",
"    XXXXXXXX########################################XXXXXXXX    ",
"    XXXXXXXX########################################XXXXXXXX    ",
"    XXXXXXXX########################################XXXXXXXX    ",
"        XXXX####XXXX########################XXXX####XXXX        ",
"        XXXX####XXXX########################XXXX####XXXX        ",
"        XXXX####XXXX########################XXXX####XXXX        ",
"        XXXX####XXXX########################XXXX####XXXX        ",
"    XXXXXXXX########################################XXXXXXXX    ",
"    XXXXXXXX########################################XXXXXXXX    ",
"    XXXXXXXX########################################XXXXXXXX    ",
"    XXXXXXXX########################################XXXXXXXX    ",
"        XXXX@@@@@@@@########################@@@@@@@@XXXX        ",
"        XXXX@@@@@@@@########################@@@@@@@@XXXX        ",
"        XXXX@@@@@@@@########################@@@@@@@@XXXX        ",
"        XXXX@@@@@@@@########################@@@@@@@@XXXX        ",
"            XXXXXXXXooooooooooooooooooooooooXXXXXXXX            ",
"            XXXXXXXXooooooooooooooooooooooooXXXXXXXX            ",
"            XXXXXXXXooooooooooooooooooooooooXXXXXXXX            ",
"            XXXXXXXXooooooooooooooooooooooooXXXXXXXX            ",
"        XXXX++++####oooooooo....####oooooooo####++++XXXX        ",
"        XXXX++++####oooooooo....####oooooooo####++++XXXX        ",
"        XXXX++++####oooooooo....####oooooooo####++++XXXX        ",
"        XXXX++++####oooooooo....####oooooooo####++++XXXX        ",
"        XXXX++++############........############++++XXXX        ",
"        XXXX++++############........############++++XXXX        ",
"        XXXX++++############........############++++XXXX        ",
"        XXXX++++############........############++++XXXX        ",
"            XXXXXXXX########################XXXXXXXX            ",
"            XXXXXXXX########################XXXXXXXX            ",
"            XXXXXXXX########################XXXXXXXX            ",
"            XXXXXXXX########################XXXXXXXX            ",
"                XXXX++++++++XXXXXXXX++++++++XXXX                ",
"                XXXX++++++++XXXXXXXX++++++++XXXX                ",
"                XXXX++++++++XXXXXXXX++++++++XXXX                ",
"                XXXX++++++++XXXXXXXX++++++++XXXX                ",
"                    XXXXXXXX        XXXXXXXX                    ",
"                    XXXXXXXX        XXXXXXXX                    ",
"                    XXXXXXXX        XXXXXXXX                    ",
"                    XXXXXXXX        XXXXXXXX                    "
};
