/* XPM */
static char *bigger[] = {
/* columns rows colors chars-per-pixel */
"69 44 117 2 ",
"   c #2F1D24",
".  c #321D25",
"X  c #301F25",
"o  c #351E26",
"O  c #381F27",
"+  c #312126",
"@  c #3F2329",
"#  c #3F292B",
"$  c #47262C",
"%  c #40292C",
"&  c #402A2C",
"*  c #402A2D",
"=  c #402B2D",
"-  c #412C2D",
";  c #422E2F",
":  c #452C2F",
">  c #4F292E",
",  c #452C30",
"<  c #462C30",
"1  c #4E2E30",
"2  c #542F30",
"3  c #453233",
"4  c #463233",
"5  c #543030",
"6  c #553030",
"7  c #563131",
"8  c #563232",
"9  c #573232",
"0  c #573332",
"q  c #563433",
"w  c #583333",
"e  c #583433",
"r  c #593433",
"t  c #583533",
"y  c #593534",
"u  c #5A3634",
"i  c #5A3836",
"p  c #5B3936",
"a  c #603435",
"s  c #653737",
"d  c #6F473F",
"f  c #7F463F",
"g  c #6F4940",
"h  c #6F4941",
"j  c #704B42",
"k  c #704C43",
"l  c #714D43",
"z  c #714E44",
"x  c #714F45",
"c  c #724F45",
"v  c #7E4941",
"b  c #755247",
"n  c #7A5549",
"m  c #7C584B",
"M  c #80463F",
"N  c #80473F",
"B  c #804740",
"V  c #814740",
"C  c #814840",
"Z  c #814841",
"A  c #824841",
"S  c #824941",
"D  c #824A41",
"F  c #834A41",
"G  c #804B42",
"H  c #814B42",
"J  c #834A42",
"K  c #834B42",
"L  c #844B42",
"P  c #844B43",
"I  c #844C43",
"U  c #854C43",
"Y  c #854D43",
"T  c #854D44",
"R  c #864D44",
"E  c #864E44",
"W  c #864E45",
"Q  c #874E45",
"!  c #874F45",
"~  c #8B5B4C",
"^  c #8B5B4D",
"/  c #8C5C4D",
"(  c #8C5D4E",
")  c #8D5D4E",
"_  c #8C5E4E",
"`  c #8D5E4F",
"'  c #8D5F4F",
"]  c #8E5F4F",
"[  c #8D5F50",
"{  c #816253",
"}  c #836657",
"|  c #8D6050",
" . c #8E6050",
".. c #8E6150",
"X. c #8E6151",
"o. c #8E6251",
"O. c #8E6252",
"+. c #8E6352",
"@. c #8F6352",
"#. c #8F6353",
"$. c #8F6453",
"%. c #886858",
"&. c #906554",
"*. c #906654",
"=. c #916655",
"-. c #926957",
";. c #936957",
":. c #946A58",
">. c #9A715D",
",. c #9A725E",
"<. c #9B735F",
"1. c #9B745F",
"2. c #9B7460",
"3. c #9C7560",
"4. c #9C7661",
"5. c #A17C66",
"6. c #A27E67",
/* pixels */
"X * - - * * * - - - # # * * * - % * * * * * * - - * * * # % * * * * * - * - - - * * * * * * * , # # # , , # # # # # # , # # # # # # ; # + ",
"* ' +.$.+.&.&.+.[ [ ' [ ' ' $.$.&.&.&.&.+.*.+.+.+.' ' ' ' ' ' +.$.$.$.$.&.$.$.$.&.&.&.$.$.&.&.&.$.[ [ O.[ [ O.[ $.$.$.$.$.$.&.%.$.$.$.$.# ",
"* [ ' ^ ^ ^ ^ ' [ +.+.&.+.+.' ~ ^ &.&.&.$.' ~ ^ [ +.[ +.&.$.' ' ' ^ ^ ^ ^ ' ' +.&.&.&.&.$.[ ^ ^ [ O.[ [ [ [ [ [ [ [ [ [ ^ ^ ' ' / @.@.@.; ",
"- $.+.+.+.+.&.&.&.&.&.&.&.&.&.$.&.' ^ ^ ' &.&.&.&.&.&.&.&.&.&.&.&.&.&.&.&.&.+.' [ ^ ^ ^ [ [ &.&.$.=.$.$.=.=.&.&.$.$.$.$.&.&.&.+. ./ / / # ",
"- $.$.$.$.-.%.} } } } } } } } } } } } } } } } } } } } } } } } } } } } } } } } } } } } } } } } } } } } } } } } } } } } } } } %.-.=.$.$.$.# ",
"- $.$.$.-.{ , O O O O O O O O O O O O O O O O O O O O O O O O O O O O O O O O O O O O O O O O O o o O O O O O O O O O O O O , { =.$.$.$.3 ",
"- $.$.$.m < o X . . . . . X X o . . . . o X X X X o X o . . . . . . . . . . X . . . . . . . . . X . . . . . . . . . . . . . o , m @.=.=.# ",
"* ~ ' +.l   $ > > > > > > > > > > > > > > > > > > > > > > > > > > > > > > > > > > > > > > > > 2 2 > > > > > > > > > > > > > $ X b $.$.%.# ",
"* $.[ [ h @ a s s s s s s s s s s s s s s s s s s s s s s s s s s s s s s s s s s s s s s s s s s s s s s s s s s s s s s s a % z ' =.@.# ",
"* $.$.$.l 1 P ! W W ! ! ! ! ! ! ! ! ! ! ! ! ! ! ! ! ! ! ! ! ! ! W W W W ! ! ! ! ! ! ! ! W W ! ! ! ! ! ! ! ! ! ! W W ! ! ! ! V 2 h ' ' / # ",
", $.$.$.c y ! ! W W W ! ! ! ! ! ! ! ! ! ! ! ! ! ! ! ! ! ! ! ! ! ! W W W ! ! W W ! ! ! ! W W W W ! ! ! ! ! ! W ! W W W ! ! ! R y z $.o.o.# ",
"# $.$.$.c y W W W W W W ! ! ! ! ! ! ! ! ! U U ! ! ! ! ! ! ! ! ! ! W W W ! ! W W ! ! ! ! W W W R W ! ! ! ! ! W W W W W ! ! ! ! y z $.$.$.# ",
"# $.$.$.l y J R W W W W ! W W W U S L S S S S S S L ! ! ! S S L W ! W W W W W W ! W J J J J J J J J J W W W P J P R W W ! W ! u z $.$.$.# ",
", $.$.$.l r P S W W W V J V V J S L L L L ! ! U L L S f S L L L J ! W W D D V V D J P P P J W ! R P P V V V P P P S W R ! S V r z $.$.$.3 ",
"# $.$.$.c u W W V V V R W W W W R ! ! ! ! ! ! ! ! ! U R R ! ! ! W V V V P W W W R W W W W W ! ! ! ! W R W R ! W W R V V V R R y z $.=.-.# ",
"# O.O.$.c u W W W W W W W W W W ! ! ! ! ! ! ! ! ! ! ! ! ! ! ! ! W W W W W W W W W W W W W W ! ! ! W W W ! ! ! W W W W W W W W y b $.$.%.# ",
"# O.' ' z y ! ! ! ! ! ! ! ! ! ! ! ! ! ! ! ! ! ! ! ! ! ! ! ! ! ! ! ! W W ! ! W W ! ! W W W W W W ! ! ! ! W W W W W W W ! ! ! ! u x @.@.$.# ",
"# $.$.+.d y ! ! ! ! ! ! ! ! ! ! ! ! S f f f S ! ! ! ! ! ! f S ! ! ! W W ! ! W W ! ! W V V V V V ! ! ! ! W W S J ! ! W W ! ! ! u g ^ ' @.# ",
"# -.$.$.l 9 N f S U R f f f U L f f ! R R ! U f f L L f f ! L f V V R R V V V P R V V R W W W W V V R P V V W P V V V R R V V 9 x @.O.^ # ",
"# %.$.$.b y ! ! U f S ! ! ! S S ! ! ! ! ! ! ! ! ! S S ! ! ! ! ! W R V V W W W P J W ! ! W W ! ! R W S J ! W W ! W W R V V W W y x @.@.$.# ",
"# $.$.$.l y ! ! ! ! ! ! ! ! ! ! ! ! ! ! ! ! ! ! ! ! ! ! ! ! ! ! W ! ! ! ! ! ! ! W W W ! ! ! ! ! W W ! ! ! ! ! ! ! ! ! ! W W ! u x $.$.$.3 ",
"# $.$.$.b q ! ! ! ! ! ! ! ! ! ! ! ! ! ! ! ! ! ! ! ! ! ! ! ! ! ! ! ! ! ! ! ! ! ! W W ! ! ! ! ! ! W W ! ! ! ! ! ! ! ! ! ! W W ! u x $.$.$.# ",
"# =.$.$.l i ! ! ! ! ! ! ! ! ! ! ! ! ! ! ! ! ! ! ! ! ! ! ! ! ! ! ! ! ! ! ! ! ! ! ! ! ! ! ! ! W W W ! ! ! ! ! ! ! ! ! ! ! ! ! ! u x $.=.=.# ",
"# $.$.$.b y ! ! ! ! ! ! ! ! ! ! ! ! ! ! ! ! ! ! ! ! ! ! ! ! ! ! ! ! ! ! ! ! ! ! ! ! ! ! ! ! ! W ! ! ! ! ! ! ! ! ! ! ! ! ! ! ! u x $.$.=.# ",
"3 @.$.$.h i ! ! ! ! ! ! ! ! ! ! ! ! ! ! ! ! ! ! ! ! ! ! ! ! ! ! ! ! W ! ! ! ! ! W W W W W W W W ! ! W W ! ! W W ! ! W W ! ! ! u x $.$.$.# ",
"# ^ ^ O.b y ! ! R ! ! ! ! ! ! ! S f f f L ! ! ! ! ! ! ! ! R ! ! W W W W ! ! ! ! W P V V V P W W ! ! ! W ! W W W ! W W W ! ! ! u x $.$.$.# ",
"# $.@.^ z y L f f L L L L L L f L ! ! ! L f L L L U L L S f S L V V J P P P R P V P ! ! R P V P R P P P R V V V R V V V P P R y x $.$.$.# ",
"# $.$.$.h q S ! ! L S S S S S ! ! ! ! ! ! ! S S S S S S ! ! U S W W P J J V J J ! ! ! ! W W W J J J J V J W W R J R W R J J V r x $.$.^ # ",
"# =.$.$.b y ! ! ! ! ! ! ! ! ! ! ! ! ! ! ! ! ! ! ! ! ! ! ! ! ! ! ! ! W W W W W W ! ! ! ! ! W W W W W W ! W W W W ! ! W W W W W u h ^ ' O.# ",
"# =.$.$.b y ! ! ! ! R ! ! ! ! ! ! ! ! ! ! ! ! ! ! ! ! ! R R R ! ! ! W R W W ! W ! W ! ! ! W W W W W ! ! W W W W W W W W W P W u h $.$.$.3 ",
"# -.*.$.h 9 S L L L S f S L ! ! ! ! ! ! ! ! L L L L L L S S f S P P P V V V P W W W ! ! ! ! W P P P P P P V V V P P P J V V J r z $.=.-.# ",
"# %.$.$.x i L S L S R ! U S S S U ! ! ! ! S L S L S L S R ! ! L J P P W W R J J J P ! ! ! ! J J J J J P P W W W P J J P R W R r b $.$.%.# ",
", $.$.$.c y ! ! ! ! ! ! ! ! R R V V V V v R ! ! ! ! ! ! ! ! ! ! W W ! ! ! ! ! W W J V V V M P W ! ! ! ! ! ! ! ! ! ! ! ! ! ! ! y x $.$.$.# ",
"# $.$.$.c y ! ! ! ! ! ! ! ! ! ! W W W ! R ! ! ! ! ! ! ! ! ! ! ! W W ! ! ! ! W W ! ! W W W R ! ! ! ! ! ! ! ! ! ! ! ! ! ! ! ! W p x $.$.$.# ",
"# $.$.$.c y ! ! ! ! ! ! ! ! ! ! W W ! ! W W ! ! ! ! ! ! ! ! ! ! ! ! ! ! ! ! ! ! ! ! ! W W W W ! ! ! ! ! ! ! ! ! ! ! ! ! ! ! W y x $.$.$.# ",
"# $.$.$.c y ! ! ! ! ! ! ! ! ! ! ! W ! ! ! W ! ! ! ! ! ! ! ! ! ! ! ! ! ! ! ! ! ! ! ! ! W W W W W ! ! ! ! ! ! ! ! ! ! ! ! ! ! ! u x $.$.$.# ",
"# $.$.$.l p R ! ! ! ! ! ! ! ! ! ! W ! ! R R ! R ! R R ! ! ! ! R W W W W ! ! ! ! W W W W W W R R W ! W W W W R R ! ! ! ! ! ! ! u x $.$.$.# ",
"3 $.$.$.n i v ! ! ! ! ! ! ! ! ! W P P R P v V S R R ! ! ! H R P W W W W ! ! ! ! W P R P R P V v J R P W ! W R P R R ! ! ! ! H p n $.$.$.# ",
"# $.$.$.$.b y y y y y y y y y y r 2 2 2 6 y y y 6 9 y y y 6 6 6 u u r u r r u y r w 2 2 2 2 y y r 2 2 y u y 9 9 9 q y y y y p b $.$.$.=., ",
"# $.$.$.$.$.n c c c c c c c l l l c c c c c l c l c c c c c c l c c d d g g g g g g l c c c c l c c c c b l l c c l c c c l m &.$.$.$.=.# ",
"# %.+.+.~ ~ ~ ~ ' +.+.$.$.$.$.$.&.$.+.[ ~ ~ ~ ~ ~ +.+.$.+.+.$.^ ^ ^ &.+.$.$.$.+.$.+.' ~ ~ [ +.$.+.$.~ ~ ~ ~ ~ ~ ~ +.$.+.$.$.$.+.+.+.+.~ # ",
"3 :.' ' +.+.$.$.+.~ [ [ [ [ [ [ [ ' ' [ $.$.$.$.$.^ ~ ^ ^ ~ ^ +.&.&.+.&.&.&.$.$.$.$.$.$.$.+.~ ^ ~ ~ +.$.$.$.$.$.$.[ ~ ~ [ [ [ [ ^ ' ' -., ",
"4 5.3.3.4.3.3.3.4.4.>.>.>.>.>.>.>.2.3.3.4.4.4.4.4.4.4.4.4.4.4.4.3.3.2.3.3.4.4.3.3.3.3.3.4.4.4.3.4.4.4.4.4.4.4.4.4.4.4.4.>.>.>.2.4.4.4.6.3 ",
"+ 4 4 3 4 4 4 4 4 4 4 3 4 4 4 3 4 4 4 4 3 3 3 3 4 4 4 4 4 4 4 4 4 4 4 4 4 4 4 4 4 4 4 4 4 4 4 4 4 4 3 3 3 4 4 4 4 4 4 4 4 3 3 3 4 4 4 4 + "
};
