/* XPM */
static char *enemy[] = {
/* columns rows colors chars-per-pixel */
"64 64 110 2 ",
"   c #754C60",
".  c #90625D",
"X  c #93655F",
"o  c #845C66",
"O  c #936560",
"+  c #946660",
"@  c #976A63",
"#  c #976B64",
"$  c #9B6F64",
"%  c #9C7166",
"&  c #9C736A",
"*  c #A17667",
"=  c #A47869",
"-  c #A47969",
";  c #A77C6A",
":  c #A37A6D",
">  c #A87E6B",
",  c #A97F6C",
"<  c #A57E73",
"1  c #A67F73",
"2  c #AC826D",
"3  c #AD846E",
"4  c #AF856F",
"5  c #AA8477",
"6  c #AA8578",
"7  c #AD897B",
"8  c #B18872",
"9  c #B78F74",
"0  c #B18E7F",
"q  c #B99175",
"w  c #BB9477",
"e  c #BA957C",
"r  c #C29C7B",
"t  c #C6A07D",
"y  c #A4C263",
"u  c #C0D470",
"i  c #B78780",
"p  c #B49282",
"a  c #B69484",
"s  c #BB9781",
"d  c #B99084",
"f  c #BC9C8A",
"g  c #BE9F8C",
"h  c #C19089",
"j  c #CCA680",
"k  c #CFAB85",
"l  c #C9A98B",
"z  c #D1AC83",
"x  c #D4AF85",
"c  c #D7B488",
"v  c #D9B688",
"b  c #DBB789",
"n  c #DCB98A",
"m  c #DEBC8E",
"M  c #C2A590",
"N  c #C3A691",
"B  c #C7AB95",
"V  c #DDA29F",
"C  c #D8A69D",
"Z  c #CCB19A",
"A  c #DFBF92",
"S  c #C8B1A0",
"D  c #D4BBA2",
"F  c #E0A6A2",
"G  c #E2ABA5",
"H  c #E4ADA7",
"J  c #E5B0A8",
"K  c #E5B2A9",
"L  c #E6B2AA",
"P  c #E8B5AC",
"I  c #E6B9AC",
"U  c #EABCAF",
"Y  c #EABEB0",
"T  c #DFC092",
"R  c #E0C194",
"E  c #E2C499",
"W  c #E3C69B",
"Q  c #E4C89D",
"!  c #D7C3AC",
"~  c #DAC7AE",
"^  c #DDC8AC",
"/  c #DEC9AC",
"(  c #E5CBA1",
")  c #E7CEA5",
"_  c #E1CDAF",
"`  c #EAD3AB",
"'  c #EBD6AF",
"]  c #E0CEB3",
"[  c #ECC9B5",
"{  c #E4D0B0",
"}  c #E4D2B3",
"|  c #E5D2B3",
" . c #E5D4B7",
".. c #E8D6B7",
"X. c #EEDBB6",
"o. c #EEDCB7",
"O. c #EFD1B9",
"+. c #EFD4BA",
"@. c #EADABB",
"#. c #EED9BB",
"$. c #EEDEBD",
"%. c #F0DEBA",
"&. c #F1DEBF",
"*. c #E8EEAA",
"=. c #EFE0BE",
"-. c #F1E1BD",
";. c #F0E1BF",
":. c #F2E2BF",
">. c #F2E2C1",
",. c #F3E5C2",
/* pixels */
"u u u u u u u u u u u u u u u u u u u u u u u u u u u u u u u u u u u u u u u u u u u u u u u u u u u u u u u u u u u u u u u u ",
"u u u u u u u u u u u u u u u u u u u u u u u u u u u u u u u u u u u u u u u u u u u u u u u u u u u u u u u u u u u u u u u u ",
"u u u u u u u u u u u u u u u u u u u u u u u u u u u u u u u u u u u u u u u u u u u u u u u u u u u u u u u u u u u u u u u u ",
"u u u u u u u u u u u u u u u u u u u u u u u u u u u u u u u u u u u u u u u u u u u u u u u u u u u u u u u u u u u u u u u u ",
"u u u u u u u u u u u u u u u u u u u u u u u u u u u u u u u u u u u u u u u u u u u u u u u u u u u u u u u u u u u u u u u u ",
"u u u u u u u u u u u u u u u u u u u u u u u u u u u u u u u u u u u u u u u u u u u u u u u u u u u u u u u u u u u u u u u u ",
"u u u u u u u u u u u u u u u u u u u u u u u u u u u u u u u u u u u u u u u u u u u u u u u u u u u u u u u u u u u u u u u u ",
"u u u u u u u u u u u u u u u u u u u u u u u u u u u u u u u u u u u u u u u u u u u u u u u u u u u u u u u u u u u u u u u u ",
"u u u u u u u u u u u u u u u u u u u u u u u u u u u u u u u u u u u u u u u u u u u u u u u u u u u u u u u u u u u u u u u u ",
"u u u u u u u u u u u u u u u u u u u u u u u u u u u u u u u u u u u u u u u u u u u u u u u u u u u u u u u u u u u u u u u u ",
"u u u u u u u u u u u u u u u u u u u u u u u u u u u u u u u u u u u u u u u u u u u u u u u u u u u u u u u u u u u u u u u u ",
"u u u u u u u u u u u u u u u u u u u u u u u u u u u u u u u u u u u u u u u u u u u u u u u u u u u u u u u u u u u u u u u u ",
"u u u u u u u u u u u u y y y y u u u u y y y y u u u u u u u u u u u u $ + . . u u u u u u . . . . u u u u u u u u u u u u u u ",
"u u u u u u u u u u u u y y y y u u u u y y y y u u u u u u u u u u u y . O . . u u u u u u . . . . u u u u u u u u u u u u u u ",
"u u u u u u u u u u u u y y y y u u u u y y y y u u u u u u u u u u 1 1 | | . . u u u u u u 5 6 _ _ . . u u u u u u u u u u u u ",
"u u u u u u u u u u u u y y y y u u u u y y y y u u u u u u u u u u 1 1 | | . . u u u u u u 5 6 _ ] . . u u u u u u u u u u u u ",
"u u u u u u u u u u u u u u u u y y y y u u u u u u . . . . u u u u < < =.=.. . . . . . . . 7 7 +.... . u u u u u u . . . . u u ",
"u u u u u u u u u u u u u u u u y y y y u u u u u u . . . . u u u y < 5 >.>.. . . . . . . . 7 7 ..... . u u u u u u . . . . u u ",
"u u u u u u u u u u u u u u u u y y y y u u u u . . M M M N 7 7 @ X : : ( ( 9 9 9 9 9 9 9 9 l l $.$.M M # # . . p p M M g g . . ",
"u u u u u u u u u u u u u u u u y y y y u u u u . . M M N N 7 7 X X : : ( ( 9 9 9 9 9 9 9 9 l l $.o.M M # # . . p p M M g g . . ",
"u u u u u u u u u u u u u u u u u u u u u u u u . . $.$.,.,.Z Z 0 0 e s n n n n n n n n n n W W ,.,.,.,.a a $ $ B B >.>.] ] . . ",
"u u u u u u u u u u u u u u u u u u u u u u u u . . $.$.,.,.Z Z 0 0 s s n n n n n n n n n n W W ,.,.,.,.a a $ $ B B >.:.] ] . . ",
"u u u u u u u u u u u u u u $ $ $ $ $ $ % % & & . . #.#.&.&.>.>.=.&.X.` n n n n k k c c m m ( ( >.>.] ] >.>.6 5 N N &.&._ _ . . ",
"u u u u u u u u u u u u u u $ $ $ $ $ $ % % & & . . #.#.&.&.>.>.:.:.X.` n n n n k k c c m m ( ( >.>.] ] >.>.6 5 N N &.&._ ] . . ",
"u u u u u u u u u u . . . . x x n n n n Q Q | } . . K K P P O.O.` ` n n n n n n o o e e ) ) ,.,. . .    @.@.5 5 h h P P C C . . ",
"u u u u u u u u u u . . . . x x n n n n Q Q | } . . K K P P O.O.` ` n n n n n n o o e e ) ) ,.,. .}     @.@.5 5 h h P P C C . . ",
"u u u u u u u u = = v v v v n n n n n n Q Q ,.,.=.=.# @ + + + O 8 8 n n n n n n o o S S ,.,.,.,. . .    @.@.=.>.f f X O O O u u ",
"u u u u u u u u = = v v v v n n n n n n Q Q ,.,.=.$.@ @ + + + O 8 8 n n n n n n o o S S ,.,.,.,. . .    @.@.:.&.f f + O O O u u ",
"u u u u u u u u = = n n n n b b n n ( ( %.%.,.,.,.,./ / / / ^ ^ { { X.X.X.X.X.X.~ ~ @.@.,.,.,.,.>.=.! ! >.>.,.,.f f . . u u u u ",
"u u u u u u u u = = n n n n n v n n ( ( %.%.,.,.,.,./ / ^ ^ ^ ^ { { X.X.X.X.X.X.~ ~ @.@.,.,.,.,.>.=.! ! >.>.,.,.f f . . u u u u ",
"u u u u u u . . = = n n n n ` ` ` ` X.o.,.,.,.,.,.,.,.,.,.,.,.,.,.,.,.,.,.,.,.,.,.,.O.O.[ [ [ [ [ [ [ [ [ [ [ [ d d . . u u u u ",
"u u u u u u . . = = n n n n ` ` ` ` o.o.,.,.,.,.,.,.,.,.,.,.,.,.,.,.,.,.,.,.,.,.,.,.O.O.[ [ [ [ [ [ [ [ [ [ [ [ d d . . u u u u ",
"u u u u , , * * 2 ; ( ( Q Q =.=.,.,.,.,.,.,.:.:.` ` ` ` -.=.,.,.] ] D D ,.,.,.,.+.+.U U J K H H P P P P G G K L i i . . u u u u ",
"u u u u , > * * ; 2 ( ( Q Q ,.:.,.,.,.,.,.,.:.:.` ` ` ` -.:.,.,.] ] D D ,.,.,.,.+.+.[ U K K H G P P P P G G L L i i . . u u u u ",
"u u * * w w 8 8 6 6 ,.,.,.,.,.,.,.,.,.,.=.:.' ' n n n n ` ` =.>.D D 0 0 _ _ ,.,.U U P P G G F F P P P P V V K H i i . . u u u u ",
"u u * * w w 8 8 6 6 ,.,.,.,.,.,.,.,.,.,.=.=.' ' n n n n ` ` =.:.D D 0 0 _ _ ,.,.U U P P G G F F P P P P V V H K i i . . u u u u ",
". . j j 4 2 . . 6 6 ,.,.,.,.,.,.,.,.,.,.' ' n n n n n n n n ' ' ,.,.^ / # @ =.=.I I K K K K K K K K K K K K K K i i . . u u u u ",
". . j j 8 9 . . 6 6 ,.,.,.,.,.,.,.,.,.,.X.` n n n n n n n n ' ' ,.,.^ / # @ =.:.I I K K K K K K K K K K K K K K i i . . u u u u ",
". . . . u u u u 6 6 ,.,.,.,.,.,.,.,.,.,.,.,.%.%.n n n n X.X.,.,.,.,.,.,.=.:.. . . . . . . . . . . . . . . . . . u u u u u u u u ",
". . . . u u u y 6 6 ,.,.,.,.,.,.,.,.,.,.,.,.%.o.n n n n X.X.,.,.,.,.,.,.-.:.. . . . . . . . . . . . . . . . . . u u u u u u u u ",
"u u u u u u u u = = R R R R T T R R ` ` ,.,.:.:.%.%.%.%.,.,.,.,.,.,.X.X.T T k z z z - - . . u u u u u u u u u u u u u u u u u u ",
"u u u u u u u u = = R R R R T T R R ` ` ,.,.:.:.%.%.%.%.,.,.,.,.,.,.X.X.T T z z z z = - . . u u u u u u u u u u u u u u u u u u ",
"u u u u u u u u = = n n n n n n n n R R Q Q Q Q Q Q Q Q Q Q Q Q Q Q E E n n n n n n 2 2 . . u u u u u u u u u u u u u u u u u u ",
"u u u u u u u u = = n n n n n n n n R R Q Q Q Q Q Q Q Q Q Q Q Q Q Q E E n n n n n n 2 2 . . u u u u u u u u u u u u u u u u u u ",
"u u u u u u u u * * w w n n n n r r 9 9 q q q q 9 9 v v n n t t 9 9 9 9 q q n n n n > > . . u u u u u u u u u u u u u u u u u u ",
"u u u u u u u u * * w w n n n n r r 9 9 q q q q 9 q v v n n t t 9 9 9 9 q q n n n n > > . . u u u u u u u u u u u u u u u u u u ",
"u u u u u u u u u u X X n n n n ; ; . . . . . . . . v v n n 4 4 . . . . X X n n n n ; > . . u u u u u u u u u u u u u u u u u u ",
"u u u u u u u u u u X X n n n n ; ; . . . . . . . . v v n n 4 4 . . . . X X n n n n > > . . u u u u u u u u u u u u u u u u u u ",
"u u u u u u u u u u @ @ z z x x = = u u u u u u . . x x x x 3 3 . . u u X X x x x x > > *.*.*.*.u u u u *.*.*.*.u u u u u u u u ",
"u u u u u u u u u u @ @ z z x x = = u u u u u u . . x x x x 3 3 . . u u X X x x x x > , *.*.*.*.u u u u *.*.*.*.u u u u u u u u ",
"u u u u u u u u u u u u . . . . u u u u u u u u u u . . . . u u u u u u u u . . . . u u *.*.*.*.u u u u *.*.*.*.u u u u u u u u ",
"u u u u u u u u u u u u . . . . u u u u u u u u u u . . . . u u u u u u u u . . . . u u *.*.*.*.u u u u *.*.*.*.u u u u u u u u ",
"u u u u u u u u u u u u u u u u u u u u u u u u u u u u u u u u u u u u u u u u u u u u u u u u *.*.*.*.u u u u u u u u u u u u ",
"u u u u u u u u u u u u u u u u u u u u u u u u u u u u u u u u u u u u u u u u u u u u u u u u *.*.*.*.u u u u u u u u u u u u ",
"u u u u u u u u u u u u u u u u u u u u u u u u u u u u u u u u u u u u u u u u u u u u u u u u *.*.*.*.u u u u u u u u u u u u ",
"u u u u u u u u u u u u u u u u u u u u u u u u u u u u u u u u u u u u u u u u u u u u u u u u *.*.*.*.u u u u u u u u u u u u ",
"u u u u u u u u u u u u u u u u u u u u u u u u u u u u u u u u u u u u u u u u u u u u u u u u u u u u u u u u u u u u u u u u ",
"u u u u u u u u u u u u u u u u u u u u u u u u u u u u u u u u u u u u u u u u u u u u u u u u u u u u u u u u u u u u u u u u ",
"u u u u u u u u u u u u u u u u u u u u u u u u u u u u u u u u u u u u u u u u u u u u u u u u u u u u u u u u u u u u u u u u ",
"u u u u u u u u u u u u u u u u u u u u u u u u u u u u u u u u u u u u u u u u u u u u u u u u u u u u u u u u u u u u u u u u ",
"u u u u u u u u u u u u u u u u u u u u u u u u u u u u u u u u u u u u u u u u u u u u u u u u u u u u u u u u u u u u u u u u ",
"u u u u u u u u u u u u u u u u u u u u u u u u u u u u u u u u u u u u u u u u u u u u u u u u u u u u u u u u u u u u u u u u ",
"u u u u u u u u u u u u u u u u u u u u u u u u u u u u u u u u u u u u u u u u u u u u u u u u u u u u u u u u u u u u u u u u ",
"u u u u u u u u u u u u u u u u u u u u u u u u u u u u u u u u u u u u u u u u u u u u u u u u u u u u u u u u u u u u u u u u "
};
