/* XPM */
static char *wall[] = {
/* columns rows colors chars-per-pixel */
"64 64 8 1 ",
"  c #545959",
". c #6B7470",
"X c #A4C263",
"o c #C0D470",
"O c #818B83",
"+ c #9DA89A",
"@ c #C1C8B9",
"# c #E8EEAA",
/* pixels */
"oooooooooooooooooooooooooooooooooooooooooooooooooooooooooooooooo",
"oooooooooooooooooooooooooooooooooooooooooooooooooooooooooooooooo",
"oooooooooooooooooooooooooooooooooooooooooooooooooooooooooooooooo",
"oooooooooooooooooooooooooooooooooooooooooooooooooooooooooooooooo",
"oooooooooooooooooooooooooooooooooooooooooooooooooooooooooooooooo",
"oooooooooooooooooooooooooooooooooooooooooooooooooooooooooooooooo",
"oooooooooooooooooooooooooooooooooooooooooooooooooooooooooooooooo",
"oooooooooooooooooooooooooooooooooooooooooooooooooooooooooooooooo",
"oooooooooooooooooooooooooooooooooooooooooooooooooooooooooooooooo",
"oooooooooooooooooooooooooooooooooooooooooooooooooooooooooooooooo",
"oooooooooooooooooooooooooooooooooooooooooooooooooooooooooooooooo",
"oooooooooooooooooooooooooooooooooooooooooooooooooooooooooooooooo",
"ooooooooooooXXXXooooXXXX............oooooooooooooooooooooooooooo",
"ooooooooooooXXXXooooXXXX............oooooooooooooooooooooooooooo",
"ooooooooooooXXXXooooXXXX............oooooooooooooooooooooooooooo",
"ooooooooooooXXXXooooXXXX............oooooooooooooooooooooooooooo",
"ooooooooooooooooXXXX....@@@@@@@@@@@@........oooooooooooooooooooo",
"ooooooooooooooooXXXX....@@@@@@@@@@@@........oooooooooooooooooooo",
"ooooooooooooooooXXXX....@@@@@@@@@@@@........oooooooooooooooooooo",
"ooooooooooooooooXXXX....@@@@@@@@@@@@........oooooooooooooooooooo",
"oooooooooooooooo....@@@@@@@@@@@@@@@@@@@@@@@@........oooooooooooo",
"oooooooooooooooo....@@@@@@@@@@@@@@@@@@@@@@@@........oooooooooooo",
"oooooooooooooooo....@@@@@@@@@@@@@@@@@@@@@@@@........oooooooooooo",
"oooooooooooooooo....@@@@@@@@@@@@@@@@@@@@@@@@........oooooooooooo",
"oooooooooooooooo....OOOO@@@@@@@@@@@@++++++++++++@@@@....oooooooo",
"oooooooooooooooo....OOOO@@@@@@@@@@@@++++++++++++@@@@....oooooooo",
"oooooooooooooooo....OOOO@@@@@@@@@@@@++++++++++++@@@@....oooooooo",
"oooooooooooooooo....OOOO@@@@@@@@@@@@++++++++++++@@@@....oooooooo",
"oooooooooooo....++++OOOOOOOO++++++++++++++++@@@@@@@@@@@@    oooo",
"oooooooooooo....++++OOOOOOOO++++++++++++++++@@@@@@@@@@@@    oooo",
"oooooooooooo....++++OOOOOOOO++++++++++++++++@@@@@@@@@@@@    oooo",
"oooooooooooo....++++OOOOOOOO++++++++++++++++@@@@@@@@@@@@    oooo",
"oooooooo....++++++++++++OOOO++++++++@@@@@@@@@@@@@@@@@@@@    oooo",
"oooooooo....++++++++++++OOOO++++++++@@@@@@@@@@@@@@@@@@@@    oooo",
"oooooooo....++++++++++++OOOO++++++++@@@@@@@@@@@@@@@@@@@@    oooo",
"oooooooo....++++++++++++OOOO++++++++@@@@@@@@@@@@@@@@@@@@    oooo",
"oooo    ++++++++++++++++++++@@@@@@@@@@@@@@@@@@@@@@@@OOOO    oooo",
"oooo    ++++++++++++++++++++@@@@@@@@@@@@@@@@@@@@@@@@OOOO    oooo",
"oooo    ++++++++++++++++++++@@@@@@@@@@@@@@@@@@@@@@@@OOOO    oooo",
"oooo    ++++++++++++++++++++@@@@@@@@@@@@@@@@@@@@@@@@OOOO    oooo",
"oooo    OOOO++++++++....@@@@@@@@@@@@@@@@@@@@@@@@OOOOOOOO    oooo",
"oooo    OOOO++++++++....@@@@@@@@@@@@@@@@@@@@@@@@OOOOOOOO    oooo",
"oooo    OOOO++++++++....@@@@@@@@@@@@@@@@@@@@@@@@OOOOOOOO    oooo",
"oooo    OOOO++++++++....@@@@@@@@@@@@@@@@@@@@@@@@OOOOOOOO    oooo",
"ooooooooOOOOOOOO....OOOO@@@@@@@@@@@@@@@@OOOOOOOOOOOOOOOO    oooo",
"ooooooooOOOOOOOO....OOOO@@@@@@@@@@@@@@@@OOOOOOOOOOOOOOOO    oooo",
"ooooooooOOOOOOOO....OOOO@@@@@@@@@@@@@@@@OOOOOOOOOOOOOOOO    oooo",
"ooooooooOOOOOOOO....OOOO@@@@@@@@@@@@@@@@OOOOOOOOOOOOOOOO    oooo",
"oooooooooooooooo....OOOOOOOOOOOOOOOOOOOOOOOOOOOOOOOOOOOOoooooooo",
"oooooooooooooooo....OOOOOOOOOOOOOOOOOOOOOOOOOOOOOOOOOOOOoooooooo",
"oooooooooooooooo....OOOOOOOOOOOOOOOOOOOOOOOOOOOOOOOOOOOOoooooooo",
"oooooooooooooooo....OOOOOOOOOOOOOOOOOOOOOOOOOOOOOOOOOOOOoooooooo",
"ooooooooooooooooooooOOOOOOOOOOOOOOOOOOOOOOOOOOOO####oooooooooooo",
"ooooooooooooooooooooOOOOOOOOOOOOOOOOOOOOOOOOOOOO####oooooooooooo",
"ooooooooooooooooooooOOOOOOOOOOOOOOOOOOOOOOOOOOOO####oooooooooooo",
"ooooooooooooooooooooOOOOOOOOOOOOOOOOOOOOOOOOOOOO####oooooooooooo",
"oooooooooooooooooooooooooooooooooooooooooooooooooooooooooooooooo",
"oooooooooooooooooooooooooooooooooooooooooooooooooooooooooooooooo",
"oooooooooooooooooooooooooooooooooooooooooooooooooooooooooooooooo",
"oooooooooooooooooooooooooooooooooooooooooooooooooooooooooooooooo",
"oooooooooooooooooooooooooooooooooooooooooooooooooooooooooooooooo",
"oooooooooooooooooooooooooooooooooooooooooooooooooooooooooooooooo",
"oooooooooooooooooooooooooooooooooooooooooooooooooooooooooooooooo",
"oooooooooooooooooooooooooooooooooooooooooooooooooooooooooooooooo"
};
